<mxfile host="app.diagrams.net" modified="2021-11-22T18:37:22.077Z" agent="5.0 (X11; Linux x86_64) AppleWebKit/537.36 (KHTML, like Gecko) Chrome/95.0.4638.54 Safari/537.36" etag="LcstAzeobYrUmJPAihLl" version="15.7.3" type="github">
  <diagram id="lCofZLIbUINr1tavpJJs" name="Page-1">
    <mxGraphModel dx="1038" dy="581" grid="0" gridSize="10" guides="1" tooltips="1" connect="1" arrows="1" fold="1" page="1" pageScale="1" pageWidth="850" pageHeight="1100" math="0" shadow="0">
      <root>
        <mxCell id="0" />
        <mxCell id="1" parent="0" />
        <mxCell id="zyjIwJKk7PrDfsCpgCSv-1" value="&lt;b&gt;&lt;font color=&quot;#000000&quot; style=&quot;font-size: 15px&quot;&gt;VPC - eu-central-1&lt;/font&gt;&lt;/b&gt;" style="points=[[0,0],[0.25,0],[0.5,0],[0.75,0],[1,0],[1,0.25],[1,0.5],[1,0.75],[1,1],[0.75,1],[0.5,1],[0.25,1],[0,1],[0,0.75],[0,0.5],[0,0.25]];outlineConnect=0;gradientColor=none;html=1;whiteSpace=wrap;fontSize=12;fontStyle=0;shape=mxgraph.aws4.group;grIcon=mxgraph.aws4.group_vpc;strokeColor=#248814;fillColor=none;verticalAlign=top;align=left;spacingLeft=30;fontColor=#AAB7B8;dashed=0;" vertex="1" parent="1">
          <mxGeometry x="184" y="139" width="494" height="587" as="geometry" />
        </mxCell>
        <mxCell id="zyjIwJKk7PrDfsCpgCSv-7" value="&lt;b&gt;&lt;font color=&quot;#1a1a1a&quot;&gt;Private subnet&lt;/font&gt;&lt;/b&gt;" style="sketch=0;outlineConnect=0;gradientColor=#ea6b66;html=1;whiteSpace=wrap;fontSize=12;fontStyle=0;shape=mxgraph.aws4.group;grIcon=mxgraph.aws4.group_subnet;strokeColor=#b85450;fillColor=#f8cecc;verticalAlign=top;align=left;spacingLeft=30;dashed=0;" vertex="1" parent="1">
          <mxGeometry x="229.5" y="410" width="186" height="170" as="geometry" />
        </mxCell>
        <mxCell id="zyjIwJKk7PrDfsCpgCSv-8" value="&lt;font color=&quot;#1a1a1a&quot;&gt;&lt;b&gt;Public subnet&lt;/b&gt;&lt;/font&gt;" style="sketch=0;outlineConnect=0;html=1;whiteSpace=wrap;fontSize=12;fontStyle=0;shape=mxgraph.aws4.group;grIcon=mxgraph.aws4.group_subnet;strokeColor=#2D7600;fillColor=#60a917;verticalAlign=top;align=left;spacingLeft=30;dashed=0;fontColor=#ffffff;" vertex="1" parent="1">
          <mxGeometry x="457" y="223" width="131" height="129" as="geometry" />
        </mxCell>
        <mxCell id="zyjIwJKk7PrDfsCpgCSv-9" value="&lt;font color=&quot;#1a1a1a&quot;&gt;&lt;b&gt;Public subnet&lt;/b&gt;&lt;/font&gt;" style="sketch=0;outlineConnect=0;html=1;whiteSpace=wrap;fontSize=12;fontStyle=0;shape=mxgraph.aws4.group;grIcon=mxgraph.aws4.group_subnet;strokeColor=#2D7600;fillColor=#60a917;verticalAlign=top;align=left;spacingLeft=30;dashed=0;fontColor=#ffffff;" vertex="1" parent="1">
          <mxGeometry x="267" y="223" width="130" height="130" as="geometry" />
        </mxCell>
        <mxCell id="zyjIwJKk7PrDfsCpgCSv-10" value="&lt;b&gt;&lt;font color=&quot;#1a1a1a&quot;&gt;Private subnet&lt;/font&gt;&lt;/b&gt;" style="sketch=0;outlineConnect=0;html=1;whiteSpace=wrap;fontSize=12;fontStyle=0;shape=mxgraph.aws4.group;grIcon=mxgraph.aws4.group_subnet;strokeColor=#b85450;fillColor=#f8cecc;verticalAlign=top;align=left;spacingLeft=30;dashed=0;gradientColor=#ea6b66;" vertex="1" parent="1">
          <mxGeometry x="437" y="410" width="203" height="170" as="geometry" />
        </mxCell>
        <mxCell id="zyjIwJKk7PrDfsCpgCSv-17" style="edgeStyle=orthogonalEdgeStyle;rounded=0;orthogonalLoop=1;jettySize=auto;html=1;entryX=0;entryY=0.5;entryDx=0;entryDy=0;entryPerimeter=0;fontSize=15;fontColor=#1A1A1A;" edge="1" parent="1" source="zyjIwJKk7PrDfsCpgCSv-12" target="zyjIwJKk7PrDfsCpgCSv-16">
          <mxGeometry relative="1" as="geometry" />
        </mxCell>
        <mxCell id="zyjIwJKk7PrDfsCpgCSv-12" value="Internet&#xa;gateway" style="sketch=0;outlineConnect=0;fontColor=#232F3E;gradientColor=none;strokeColor=#232F3E;fillColor=#ffffff;dashed=0;verticalLabelPosition=bottom;verticalAlign=top;align=center;html=1;fontSize=12;fontStyle=0;aspect=fixed;shape=mxgraph.aws4.resourceIcon;resIcon=mxgraph.aws4.internet_gateway;" vertex="1" parent="1">
          <mxGeometry x="395" y="108" width="60" height="60" as="geometry" />
        </mxCell>
        <mxCell id="zyjIwJKk7PrDfsCpgCSv-64" style="edgeStyle=orthogonalEdgeStyle;rounded=0;orthogonalLoop=1;jettySize=auto;html=1;fontSize=16;fontColor=#000000;" edge="1" parent="1" source="zyjIwJKk7PrDfsCpgCSv-13" target="zyjIwJKk7PrDfsCpgCSv-12">
          <mxGeometry relative="1" as="geometry">
            <Array as="points">
              <mxPoint x="332" y="248" />
              <mxPoint x="384" y="248" />
              <mxPoint x="384" y="138" />
            </Array>
          </mxGeometry>
        </mxCell>
        <mxCell id="zyjIwJKk7PrDfsCpgCSv-13" value="NAT gateway" style="sketch=0;outlineConnect=0;fontColor=#232F3E;gradientColor=none;strokeColor=#232F3E;fillColor=#ffffff;dashed=0;verticalLabelPosition=bottom;verticalAlign=top;align=center;html=1;fontSize=12;fontStyle=0;aspect=fixed;shape=mxgraph.aws4.resourceIcon;resIcon=mxgraph.aws4.nat_gateway;" vertex="1" parent="1">
          <mxGeometry x="314" y="270" width="36" height="36" as="geometry" />
        </mxCell>
        <mxCell id="zyjIwJKk7PrDfsCpgCSv-62" style="edgeStyle=orthogonalEdgeStyle;rounded=0;orthogonalLoop=1;jettySize=auto;html=1;fontSize=16;fontColor=#000000;" edge="1" parent="1" source="zyjIwJKk7PrDfsCpgCSv-14" target="zyjIwJKk7PrDfsCpgCSv-12">
          <mxGeometry relative="1" as="geometry">
            <Array as="points">
              <mxPoint x="522" y="246" />
              <mxPoint x="484" y="246" />
              <mxPoint x="484" y="138" />
            </Array>
          </mxGeometry>
        </mxCell>
        <mxCell id="zyjIwJKk7PrDfsCpgCSv-14" value="NAT gateway" style="sketch=0;outlineConnect=0;fontColor=#232F3E;gradientColor=none;strokeColor=#232F3E;fillColor=#ffffff;dashed=0;verticalLabelPosition=bottom;verticalAlign=top;align=center;html=1;fontSize=12;fontStyle=0;aspect=fixed;shape=mxgraph.aws4.resourceIcon;resIcon=mxgraph.aws4.nat_gateway;" vertex="1" parent="1">
          <mxGeometry x="504" y="270" width="36" height="36" as="geometry" />
        </mxCell>
        <mxCell id="zyjIwJKk7PrDfsCpgCSv-26" style="edgeStyle=orthogonalEdgeStyle;rounded=0;orthogonalLoop=1;jettySize=auto;html=1;fontSize=15;fontColor=#1A1A1A;exitX=1;exitY=0.5;exitDx=0;exitDy=0;exitPerimeter=0;" edge="1" parent="1" source="zyjIwJKk7PrDfsCpgCSv-16" target="zyjIwJKk7PrDfsCpgCSv-10">
          <mxGeometry relative="1" as="geometry">
            <Array as="points">
              <mxPoint x="425" y="385" />
              <mxPoint x="520" y="385" />
            </Array>
          </mxGeometry>
        </mxCell>
        <mxCell id="zyjIwJKk7PrDfsCpgCSv-27" style="edgeStyle=orthogonalEdgeStyle;rounded=0;orthogonalLoop=1;jettySize=auto;html=1;exitX=1;exitY=0.5;exitDx=0;exitDy=0;exitPerimeter=0;fontSize=15;fontColor=#1A1A1A;" edge="1" parent="1" source="zyjIwJKk7PrDfsCpgCSv-16" target="zyjIwJKk7PrDfsCpgCSv-7">
          <mxGeometry relative="1" as="geometry">
            <mxPoint x="320" y="406" as="targetPoint" />
            <Array as="points">
              <mxPoint x="425" y="385" />
              <mxPoint x="320" y="385" />
            </Array>
          </mxGeometry>
        </mxCell>
        <mxCell id="zyjIwJKk7PrDfsCpgCSv-16" value="" style="outlineConnect=0;dashed=0;verticalLabelPosition=bottom;verticalAlign=top;align=center;html=1;shape=mxgraph.aws3.classic_load_balancer;fillColor=#F58534;gradientColor=none;fontSize=15;fontColor=#1A1A1A;rotation=90;" vertex="1" parent="1">
          <mxGeometry x="385" y="246" width="80.5" height="84" as="geometry" />
        </mxCell>
        <mxCell id="zyjIwJKk7PrDfsCpgCSv-73" value="Start new task" style="edgeStyle=orthogonalEdgeStyle;rounded=0;orthogonalLoop=1;jettySize=auto;html=1;exitX=1;exitY=0;exitDx=0;exitDy=0;exitPerimeter=0;entryX=0;entryY=1;entryDx=0;entryDy=0;entryPerimeter=0;fontSize=16;fontColor=#000000;" edge="1" parent="1" source="zyjIwJKk7PrDfsCpgCSv-19" target="zyjIwJKk7PrDfsCpgCSv-58">
          <mxGeometry x="0.0692" relative="1" as="geometry">
            <Array as="points">
              <mxPoint x="464" y="634" />
              <mxPoint x="550" y="634" />
              <mxPoint x="550" y="497" />
            </Array>
            <mxPoint as="offset" />
          </mxGeometry>
        </mxCell>
        <mxCell id="zyjIwJKk7PrDfsCpgCSv-74" value="Start new task" style="edgeStyle=orthogonalEdgeStyle;rounded=0;orthogonalLoop=1;jettySize=auto;html=1;exitX=0;exitY=0;exitDx=0;exitDy=0;exitPerimeter=0;entryX=1;entryY=1;entryDx=0;entryDy=0;entryPerimeter=0;fontSize=16;fontColor=#000000;" edge="1" parent="1" source="zyjIwJKk7PrDfsCpgCSv-19" target="zyjIwJKk7PrDfsCpgCSv-54">
          <mxGeometry x="0.1734" relative="1" as="geometry">
            <Array as="points">
              <mxPoint x="386" y="649" />
              <mxPoint x="311" y="649" />
              <mxPoint x="311" y="497" />
            </Array>
            <mxPoint as="offset" />
          </mxGeometry>
        </mxCell>
        <mxCell id="zyjIwJKk7PrDfsCpgCSv-19" value="ECS" style="sketch=0;points=[[0,0,0],[0.25,0,0],[0.5,0,0],[0.75,0,0],[1,0,0],[0,1,0],[0.25,1,0],[0.5,1,0],[0.75,1,0],[1,1,0],[0,0.25,0],[0,0.5,0],[0,0.75,0],[1,0.25,0],[1,0.5,0],[1,0.75,0]];outlineConnect=0;fontColor=#232F3E;gradientColor=#F78E04;gradientDirection=north;fillColor=#D05C17;strokeColor=#ffffff;dashed=0;verticalLabelPosition=bottom;verticalAlign=top;align=center;html=1;fontSize=12;fontStyle=0;aspect=fixed;shape=mxgraph.aws4.resourceIcon;resIcon=mxgraph.aws4.ecs;" vertex="1" parent="1">
          <mxGeometry x="397" y="632" width="78" height="78" as="geometry" />
        </mxCell>
        <mxCell id="zyjIwJKk7PrDfsCpgCSv-24" value="&lt;font style=&quot;font-size: 16px&quot; color=&quot;#000000&quot;&gt;&lt;b style=&quot;background-color: rgb(255 , 255 , 255)&quot;&gt;Autoscaling&lt;/b&gt;&lt;/font&gt;" style="sketch=0;outlineConnect=0;fontColor=#ffffff;fillColor=#6d8764;strokeColor=#3A5431;dashed=0;verticalLabelPosition=bottom;verticalAlign=top;align=center;html=1;fontSize=12;fontStyle=0;aspect=fixed;pointerEvents=1;shape=mxgraph.aws4.auto_scaling2;" vertex="1" parent="1">
          <mxGeometry x="383" y="458" width="85" height="85" as="geometry" />
        </mxCell>
        <mxCell id="zyjIwJKk7PrDfsCpgCSv-36" value="WebHook" style="edgeStyle=orthogonalEdgeStyle;rounded=0;orthogonalLoop=1;jettySize=auto;html=1;fontSize=15;fontColor=#1A1A1A;" edge="1" parent="1" source="zyjIwJKk7PrDfsCpgCSv-32" target="zyjIwJKk7PrDfsCpgCSv-31">
          <mxGeometry relative="1" as="geometry" />
        </mxCell>
        <mxCell id="zyjIwJKk7PrDfsCpgCSv-32" value="" style="shape=image;html=1;verticalAlign=top;verticalLabelPosition=bottom;labelBackgroundColor=#ffffff;imageAspect=0;aspect=fixed;image=https://cdn0.iconfinder.com/data/icons/social-network-9/50/29-128.png;fontSize=15;fontColor=#1A1A1A;" vertex="1" parent="1">
          <mxGeometry x="958" y="261" width="128" height="128" as="geometry" />
        </mxCell>
        <mxCell id="zyjIwJKk7PrDfsCpgCSv-34" value="" style="shape=image;verticalLabelPosition=bottom;labelBackgroundColor=#ffffff;verticalAlign=top;aspect=fixed;imageAspect=0;image=https://quintagroup.com/services/service-images/terraform-and-terragrunt.jpg;" vertex="1" parent="1">
          <mxGeometry x="1299" y="610" width="133.56" height="75" as="geometry" />
        </mxCell>
        <mxCell id="zyjIwJKk7PrDfsCpgCSv-47" value="CI/CD" style="swimlane;fontSize=15;fillColor=#d5e8d4;strokeColor=#82b366;" vertex="1" parent="1">
          <mxGeometry x="946" y="159" width="675" height="393" as="geometry" />
        </mxCell>
        <mxCell id="zyjIwJKk7PrDfsCpgCSv-48" value="Developers" style="shape=umlActor;verticalLabelPosition=bottom;verticalAlign=top;html=1;outlineConnect=0;fontSize=15;fontColor=#1A1A1A;" vertex="1" parent="zyjIwJKk7PrDfsCpgCSv-47">
          <mxGeometry x="61" y="294" width="30" height="60" as="geometry" />
        </mxCell>
        <mxCell id="zyjIwJKk7PrDfsCpgCSv-31" value="Build image" style="sketch=0;outlineConnect=0;fontColor=#232F3E;gradientColor=none;strokeColor=#ffffff;fillColor=#232F3E;dashed=0;verticalLabelPosition=middle;verticalAlign=bottom;align=center;html=1;whiteSpace=wrap;fontSize=10;fontStyle=1;spacing=3;shape=mxgraph.aws4.productIcon;prIcon=mxgraph.aws4.codebuild;" vertex="1" parent="zyjIwJKk7PrDfsCpgCSv-47">
          <mxGeometry x="238" y="112" width="80" height="110" as="geometry" />
        </mxCell>
        <mxCell id="zyjIwJKk7PrDfsCpgCSv-37" value="Amazon ECR" style="sketch=0;outlineConnect=0;fontColor=#232F3E;gradientColor=none;strokeColor=#ffffff;fillColor=#232F3E;dashed=0;verticalLabelPosition=middle;verticalAlign=bottom;align=center;html=1;whiteSpace=wrap;fontSize=10;fontStyle=1;spacing=3;shape=mxgraph.aws4.productIcon;prIcon=mxgraph.aws4.ecr;" vertex="1" parent="zyjIwJKk7PrDfsCpgCSv-47">
          <mxGeometry x="378" y="31" width="80" height="100" as="geometry" />
        </mxCell>
        <mxCell id="zyjIwJKk7PrDfsCpgCSv-38" style="edgeStyle=orthogonalEdgeStyle;rounded=0;orthogonalLoop=1;jettySize=auto;html=1;fontSize=15;fontColor=#1A1A1A;" edge="1" parent="zyjIwJKk7PrDfsCpgCSv-47" source="zyjIwJKk7PrDfsCpgCSv-31" target="zyjIwJKk7PrDfsCpgCSv-37">
          <mxGeometry relative="1" as="geometry" />
        </mxCell>
        <mxCell id="zyjIwJKk7PrDfsCpgCSv-40" value="Push" style="edgeLabel;html=1;align=center;verticalAlign=middle;resizable=0;points=[];fontSize=15;fontColor=#1A1A1A;" vertex="1" connectable="0" parent="zyjIwJKk7PrDfsCpgCSv-38">
          <mxGeometry x="0.1311" y="-4" relative="1" as="geometry">
            <mxPoint as="offset" />
          </mxGeometry>
        </mxCell>
        <mxCell id="zyjIwJKk7PrDfsCpgCSv-42" value="1" style="edgeLabel;html=1;align=center;verticalAlign=middle;resizable=0;points=[];fontSize=15;fontColor=#1A1A1A;" vertex="1" connectable="0" parent="zyjIwJKk7PrDfsCpgCSv-38">
          <mxGeometry x="-0.2897" y="-2" relative="1" as="geometry">
            <mxPoint x="-5" as="offset" />
          </mxGeometry>
        </mxCell>
        <mxCell id="zyjIwJKk7PrDfsCpgCSv-35" value="Task" style="sketch=0;outlineConnect=0;fontColor=#232F3E;gradientColor=none;fillColor=#D45B07;strokeColor=none;dashed=0;verticalLabelPosition=bottom;verticalAlign=top;align=center;html=1;fontSize=12;fontStyle=0;aspect=fixed;pointerEvents=1;shape=mxgraph.aws4.ecs_task;" vertex="1" parent="zyjIwJKk7PrDfsCpgCSv-47">
          <mxGeometry x="456" y="134" width="47.79" height="62" as="geometry" />
        </mxCell>
        <mxCell id="zyjIwJKk7PrDfsCpgCSv-41" value="Update" style="edgeStyle=orthogonalEdgeStyle;rounded=0;orthogonalLoop=1;jettySize=auto;html=1;fontSize=15;fontColor=#1A1A1A;" edge="1" parent="zyjIwJKk7PrDfsCpgCSv-47" source="zyjIwJKk7PrDfsCpgCSv-31" target="zyjIwJKk7PrDfsCpgCSv-35">
          <mxGeometry x="0.1262" relative="1" as="geometry">
            <mxPoint as="offset" />
          </mxGeometry>
        </mxCell>
        <mxCell id="zyjIwJKk7PrDfsCpgCSv-43" value="2" style="edgeLabel;html=1;align=center;verticalAlign=middle;resizable=0;points=[];fontSize=15;fontColor=#1A1A1A;" vertex="1" connectable="0" parent="zyjIwJKk7PrDfsCpgCSv-41">
          <mxGeometry x="-0.3878" y="1" relative="1" as="geometry">
            <mxPoint x="-5" y="-1" as="offset" />
          </mxGeometry>
        </mxCell>
        <mxCell id="zyjIwJKk7PrDfsCpgCSv-52" value="Starts new tasks" style="edgeStyle=orthogonalEdgeStyle;rounded=0;orthogonalLoop=1;jettySize=auto;html=1;fontSize=15;fontColor=#1A1A1A;" edge="1" parent="zyjIwJKk7PrDfsCpgCSv-47" source="zyjIwJKk7PrDfsCpgCSv-44" target="zyjIwJKk7PrDfsCpgCSv-51">
          <mxGeometry relative="1" as="geometry" />
        </mxCell>
        <mxCell id="zyjIwJKk7PrDfsCpgCSv-44" value="ECS" style="sketch=0;outlineConnect=0;fontColor=#232F3E;gradientColor=none;strokeColor=#ffffff;fillColor=#232F3E;dashed=0;verticalLabelPosition=middle;verticalAlign=bottom;align=center;html=1;whiteSpace=wrap;fontSize=10;fontStyle=1;spacing=3;shape=mxgraph.aws4.productIcon;prIcon=mxgraph.aws4.ecs;" vertex="1" parent="zyjIwJKk7PrDfsCpgCSv-47">
          <mxGeometry x="575" y="115" width="80" height="100" as="geometry" />
        </mxCell>
        <mxCell id="zyjIwJKk7PrDfsCpgCSv-46" value="pull" style="edgeStyle=orthogonalEdgeStyle;rounded=0;orthogonalLoop=1;jettySize=auto;html=1;fontSize=15;fontColor=#1A1A1A;" edge="1" parent="zyjIwJKk7PrDfsCpgCSv-47" source="zyjIwJKk7PrDfsCpgCSv-44" target="zyjIwJKk7PrDfsCpgCSv-35">
          <mxGeometry relative="1" as="geometry" />
        </mxCell>
        <mxCell id="zyjIwJKk7PrDfsCpgCSv-51" value="Amazon EC2" style="sketch=0;outlineConnect=0;fontColor=#232F3E;gradientColor=none;strokeColor=#ffffff;fillColor=#232F3E;dashed=0;verticalLabelPosition=middle;verticalAlign=bottom;align=center;html=1;whiteSpace=wrap;fontSize=10;fontStyle=1;spacing=3;shape=mxgraph.aws4.productIcon;prIcon=mxgraph.aws4.ec2;" vertex="1" parent="zyjIwJKk7PrDfsCpgCSv-47">
          <mxGeometry x="575" y="261" width="80" height="100" as="geometry" />
        </mxCell>
        <mxCell id="zyjIwJKk7PrDfsCpgCSv-49" value="push" style="edgeStyle=orthogonalEdgeStyle;rounded=0;orthogonalLoop=1;jettySize=auto;html=1;fontSize=15;fontColor=#1A1A1A;" edge="1" parent="1" source="zyjIwJKk7PrDfsCpgCSv-48" target="zyjIwJKk7PrDfsCpgCSv-32">
          <mxGeometry relative="1" as="geometry" />
        </mxCell>
        <mxCell id="zyjIwJKk7PrDfsCpgCSv-63" style="edgeStyle=orthogonalEdgeStyle;rounded=0;orthogonalLoop=1;jettySize=auto;html=1;fontSize=16;fontColor=#000000;" edge="1" parent="1" source="zyjIwJKk7PrDfsCpgCSv-54" target="zyjIwJKk7PrDfsCpgCSv-13">
          <mxGeometry relative="1" as="geometry">
            <Array as="points">
              <mxPoint x="257" y="288" />
            </Array>
          </mxGeometry>
        </mxCell>
        <mxCell id="zyjIwJKk7PrDfsCpgCSv-54" value="EC2" style="sketch=0;points=[[0,0,0],[0.25,0,0],[0.5,0,0],[0.75,0,0],[1,0,0],[0,1,0],[0.25,1,0],[0.5,1,0],[0.75,1,0],[1,1,0],[0,0.25,0],[0,0.5,0],[0,0.75,0],[1,0.25,0],[1,0.5,0],[1,0.75,0]];outlineConnect=0;fontColor=#232F3E;gradientColor=#F78E04;gradientDirection=north;fillColor=#D05C17;strokeColor=#ffffff;dashed=0;verticalLabelPosition=bottom;verticalAlign=top;align=center;html=1;fontSize=12;fontStyle=0;aspect=fixed;shape=mxgraph.aws4.resourceIcon;resIcon=mxgraph.aws4.ec2;" vertex="1" parent="1">
          <mxGeometry x="239" y="441" width="56" height="56" as="geometry" />
        </mxCell>
        <mxCell id="zyjIwJKk7PrDfsCpgCSv-57" style="edgeStyle=orthogonalEdgeStyle;rounded=0;orthogonalLoop=1;jettySize=auto;html=1;fontSize=15;fontColor=#1A1A1A;" edge="1" parent="1" source="zyjIwJKk7PrDfsCpgCSv-55" target="zyjIwJKk7PrDfsCpgCSv-54">
          <mxGeometry relative="1" as="geometry" />
        </mxCell>
        <mxCell id="zyjIwJKk7PrDfsCpgCSv-55" value="Scale" style="aspect=fixed;html=1;points=[];align=center;image;fontSize=12;image=img/lib/azure2/general/Scale.svg;fontColor=#1A1A1A;" vertex="1" parent="1">
          <mxGeometry x="340" y="478" width="45" height="45" as="geometry" />
        </mxCell>
        <mxCell id="zyjIwJKk7PrDfsCpgCSv-59" style="edgeStyle=orthogonalEdgeStyle;rounded=0;orthogonalLoop=1;jettySize=auto;html=1;entryX=0;entryY=0.5;entryDx=0;entryDy=0;entryPerimeter=0;fontSize=15;fontColor=#1A1A1A;" edge="1" parent="1" source="zyjIwJKk7PrDfsCpgCSv-56" target="zyjIwJKk7PrDfsCpgCSv-58">
          <mxGeometry relative="1" as="geometry" />
        </mxCell>
        <mxCell id="zyjIwJKk7PrDfsCpgCSv-56" value="Scale" style="aspect=fixed;html=1;points=[];align=center;image;fontSize=12;image=img/lib/azure2/general/Scale.svg;fontColor=#1A1A1A;" vertex="1" parent="1">
          <mxGeometry x="464" y="478" width="45" height="45" as="geometry" />
        </mxCell>
        <mxCell id="zyjIwJKk7PrDfsCpgCSv-75" style="edgeStyle=orthogonalEdgeStyle;rounded=0;orthogonalLoop=1;jettySize=auto;html=1;fontSize=16;fontColor=#000000;" edge="1" parent="1" source="zyjIwJKk7PrDfsCpgCSv-58" target="zyjIwJKk7PrDfsCpgCSv-14">
          <mxGeometry relative="1" as="geometry">
            <Array as="points">
              <mxPoint x="602" y="288" />
            </Array>
          </mxGeometry>
        </mxCell>
        <mxCell id="zyjIwJKk7PrDfsCpgCSv-58" value="EC2" style="sketch=0;points=[[0,0,0],[0.25,0,0],[0.5,0,0],[0.75,0,0],[1,0,0],[0,1,0],[0.25,1,0],[0.5,1,0],[0.75,1,0],[1,1,0],[0,0.25,0],[0,0.5,0],[0,0.75,0],[1,0.25,0],[1,0.5,0],[1,0.75,0]];outlineConnect=0;fontColor=#232F3E;gradientColor=#F78E04;gradientDirection=north;fillColor=#D05C17;strokeColor=#ffffff;dashed=0;verticalLabelPosition=bottom;verticalAlign=top;align=center;html=1;fontSize=12;fontStyle=0;aspect=fixed;shape=mxgraph.aws4.resourceIcon;resIcon=mxgraph.aws4.ec2;" vertex="1" parent="1">
          <mxGeometry x="574" y="441" width="56" height="56" as="geometry" />
        </mxCell>
        <mxCell id="zyjIwJKk7PrDfsCpgCSv-69" value="Update task" style="edgeStyle=orthogonalEdgeStyle;rounded=0;orthogonalLoop=1;jettySize=auto;html=1;entryX=1;entryY=0.5;entryDx=0;entryDy=0;entryPerimeter=0;fontSize=16;fontColor=#000000;" edge="1" parent="1" source="zyjIwJKk7PrDfsCpgCSv-68" target="zyjIwJKk7PrDfsCpgCSv-19">
          <mxGeometry x="0.1946" relative="1" as="geometry">
            <Array as="points">
              <mxPoint x="628" y="660" />
            </Array>
            <mxPoint as="offset" />
          </mxGeometry>
        </mxCell>
        <mxCell id="zyjIwJKk7PrDfsCpgCSv-68" value="" style="sketch=0;points=[[0,0,0],[0.25,0,0],[0.5,0,0],[0.75,0,0],[1,0,0],[0,1,0],[0.25,1,0],[0.5,1,0],[0.75,1,0],[1,1,0],[0,0.25,0],[0,0.5,0],[0,0.75,0],[1,0.25,0],[1,0.5,0],[1,0.75,0]];outlineConnect=0;fontColor=#232F3E;gradientColor=#4D72F3;gradientDirection=north;fillColor=#3334B9;strokeColor=#ffffff;dashed=0;verticalLabelPosition=bottom;verticalAlign=top;align=center;html=1;fontSize=12;fontStyle=0;aspect=fixed;shape=mxgraph.aws4.resourceIcon;resIcon=mxgraph.aws4.codebuild;labelBackgroundColor=#FFFFFF;" vertex="1" parent="1">
          <mxGeometry x="575" y="520" width="55" height="55" as="geometry" />
        </mxCell>
      </root>
    </mxGraphModel>
  </diagram>
</mxfile>
